Run_30001
nRows=4
nColumns=164

# SIMM Motion File Header:
name Run_30001
datacolumns 164
datarows 4
otherdata 1
range 4.02500000 4.05000000
endheader
time	pelvis_tilt	pelvis_list	pelvis_rotation	pelvis_tx	pelvis_ty	pelvis_tz	hip_flexion_r	hip_adduction_r	hip_rotation_r	knee_angle_r	ankle_angle_r	hip_flexion_l	hip_adduction_l	hip_rotation_l	knee_angle_l	ankle_angle_l	lumbar_extension	lumbar_bending	lumbar_rotation	arm_flex_r	arm_add_r	arm_rot_r	elbow_flex_r	pro_sup_r	arm_flex_l	arm_add_l	arm_rot_l	elbow_flex_l	pro_sup_l	subtalar_angle_r	mtp_angle_r	subtalar_angle_l	mtp_angle_l	wrist_flex_r	wrist_dev_r	wrist_flex_l	wrist_dev_l	LASI_tx	LASI_ty	LASI_tz	RASI_tx	RASI_ty	RASI_tz	LPSI_tx	LPSI_ty	LPSI_tz	RPSI_tx	RPSI_ty	RPSI_tz	RTH1_tx	RTH1_ty	RTH1_tz	RTH2_tx	RTH2_ty	RTH2_tz	RTH3_tx	RTH3_ty	RTH3_tz	LTH1_tx	LTH1_ty	LTH1_tz	LTH2_tx	LTH2_ty	LTH2_tz	LTH3_tx	LTH3_ty	LTH3_tz	RTB1_tx	RTB1_ty	RTB1_tz	RTB2_tx	RTB2_ty	RTB2_tz	RTB3_tx	RTB3_ty	RTB3_tz	LTB1_tx	LTB1_ty	LTB1_tz	LTB2_tx	LTB2_ty	LTB2_tz	LTB3_tx	LTB3_ty	LTB3_tz	RCAL_tx	RCAL_ty	RCAL_tz	RTOE_tx	RTOE_ty	RTOE_tz	RMT5_tx	RMT5_ty	RMT5_tz	LCAL_tx	LCAL_ty	LCAL_tz	LTOE_tx	LTOE_ty	LTOE_tz	LMT5_tx	LMT5_ty	LMT5_tz	LACR_tx	LACR_ty	LACR_tz	RACR_tx	RACR_ty	RACR_tz	CLAV_tx	CLAV_ty	CLAV_tz	C7_tx	C7_ty	C7_tz	RUA1_tx	RUA1_ty	RUA1_tz	RUA2_tx	RUA2_ty	RUA2_tz	RUA3_tx	RUA3_ty	RUA3_tz	RLEL_tx	RLEL_ty	RLEL_tz	RMEL_tx	RMEL_ty	RMEL_tz	LUA1_tx	LUA1_ty	LUA1_tz	LUA2_tx	LUA2_ty	LUA2_tz	LUA3_tx	LUA3_ty	LUA3_tz	LLEL_tx	LLEL_ty	LLEL_tz	LMEL_tx	LMEL_ty	LMEL_tz	RFAsuperior_tx	RFAsuperior_ty	RFAsuperior_tz	RFAradius_tx	RFAradius_ty	RFAradius_tz	RFAulna_tx	RFAulna_ty	RFAulna_tz	LFAsuperior_tx	LFAsuperior_ty	LFAsuperior_tz	LFAradius_tx	LFAradius_ty	LFAradius_tz	LFAulna_tx	LFAulna_ty	LFAulna_tz
      4.02500000	     -5.42049170	      1.16703930	     -0.94741940	      1.10002653	      1.01331417	     -0.30002794	     -8.97993271	      2.69481893	      4.54084261	    -23.85130036	    -11.72443950	     44.60363992	      2.28049380	     -3.35465192	    -75.77065288	     -5.32419512	     -3.31468407	      1.21543859	     13.25010318	    -24.49612838	    -10.79878636	    -12.29352948	    103.89176414	     80.26067444	    -51.27132727	    -18.81968879	     -7.11817784	     97.22798772	     81.77279149	      0.00000000	      0.00000000	      0.00000000	      0.00000000	      0.00000000	      0.00000000	      0.00000000	      0.00000000	      1.10747986	      1.02955595	     -0.41306246	      1.10027102	      1.01308782	     -0.17925704	      0.94092249	      1.06829303	     -0.35413441	      0.93984229	      1.06652343	     -0.25490877	      1.00364103	      0.86597986	     -0.12808058	      1.02327244	      0.71091506	     -0.16033634	      0.93336032	      0.64127299	     -0.16948008	      1.10656267	      0.88167472	     -0.48038569	      1.22306062	      0.84041944	     -0.45420053	      1.22760585	      0.70035153	     -0.45590917	      0.88013634	      0.40564987	     -0.23298869	      0.80123587	      0.38856458	     -0.17691336	      0.76345053	      0.26810361	     -0.23895578	      1.27754912	      0.48743759	     -0.38994466	      1.18221923	      0.42984450	     -0.43252348	      1.14983650	      0.33545050	     -0.36698593	      0.58513876	      0.22578826	     -0.26840894	      0.73673236	      0.08518299	     -0.29974536	      0.69619334	      0.05502470	     -0.19906949	      0.98173524	      0.29586195	     -0.34318963	      1.14682673	      0.16861527	     -0.32564280	      1.11403395	      0.14766452	     -0.42456129	      1.04656328	      1.51445227	     -0.46165653	      1.10743247	      1.49351306	     -0.10989884	      1.15186556	      1.45382075	     -0.28112637	      1.04132594	      1.53768633	     -0.29050371	      1.08649440	      1.40860337	     -0.06284617	      1.09102051	      1.31886960	     -0.07729404	      1.00478388	      1.32129491	     -0.04710453	      0.98671848	      1.20743343	     -0.02151396	      0.95976489	      1.20289206	     -0.08780114	      0.98289283	      1.47831305	     -0.50413532	      0.92056705	      1.44789027	     -0.45829264	      0.92373167	      1.39417979	     -0.52823376	      0.80621458	      1.34611343	     -0.53722583	      0.80036108	      1.34358692	     -0.46333510	      1.08470688	      1.19988976	     -0.03434729	      1.23612048	      1.15399814	     -0.11634016	      1.21414984	      1.09000605	     -0.10762354	      0.86174370	      1.28649013	     -0.55751559	      0.98668566	      1.13731293	     -0.52410170	      0.92938022	      1.10235717	     -0.53338089
      4.03333300	     -5.68850501	      1.76219753	     -0.37197420	      1.10148911	      1.01896979	     -0.30056731	    -10.13518886	      1.97221046	      4.25509483	    -22.87918658	    -15.24850791	     44.34398729	      3.16054857	     -3.41839915	    -70.42158193	     -6.43308513	     -2.82023047	      0.35474810	     12.95150141	    -24.76287776	    -10.73868403	    -11.87012581	    104.82494836	     80.03530008	    -52.44952727	    -18.93143939	     -7.86971080	     98.47515601	     81.28285183	      0.00000000	      0.00000000	      0.00000000	      0.00000000	      0.00000000	      0.00000000	      0.00000000	      0.00000000	      1.10771848	      1.03612322	     -0.41323698	      1.10247659	      1.01760466	     -0.18061336	      0.94231344	      1.07487482	     -0.35257725	      0.94185018	      1.07256772	     -0.25355827	      1.00387284	      0.87133257	     -0.12706691	      1.01896638	      0.71606649	     -0.16041570	      0.92721258	      0.64906042	     -0.16950266	      1.10705402	      0.88950256	     -0.47952997	      1.22239033	      0.84638491	     -0.45541801	      1.22466568	      0.70454789	     -0.45414433	      0.87012872	      0.41360480	     -0.23167723	      0.79100078	      0.39732295	     -0.17513873	      0.75289975	      0.27638465	     -0.23631020	      1.28569947	      0.48992131	     -0.39163940	      1.19524198	      0.42462705	     -0.43294215	      1.17125574	      0.32796388	     -0.36713026	      0.57707971	      0.24085339	     -0.26347615	      0.71771335	      0.08961848	     -0.29773888	      0.67667130	      0.06101178	     -0.19773513	      1.00747755	      0.27579701	     -0.34208281	      1.18147852	      0.16129172	     -0.32265356	      1.14871199	      0.13491991	     -0.42177775	      1.04601060	      1.51916910	     -0.46217638	      1.10889108	      1.50019845	     -0.11183175	      1.15189533	      1.45916016	     -0.28256476	      1.04150698	      1.54267610	     -0.29157776	      1.08851056	      1.41641789	     -0.06387737	      1.09288032	      1.32636971	     -0.07728821	      1.00669286	      1.32952519	     -0.04708321	      0.98866481	      1.21521199	     -0.02060209	      0.96146105	      1.20992353	     -0.08721706	      0.98172736	      1.48552776	     -0.50405398	      0.92028364	      1.45571334	     -0.45744976	      0.92122682	      1.40224050	     -0.52791296	      0.80306003	      1.35497006	     -0.53571716	      0.79817280	      1.35310053	     -0.46171501	      1.08640702	      1.20908608	     -0.03493213	      1.23731701	      1.16477144	     -0.11910145	      1.21677679	      1.10043584	     -0.11101450	      0.85802568	      1.29554883	     -0.55663963	      0.98486913	      1.14741559	     -0.52470030	      0.92797995	      1.11178399	     -0.53294082
      4.04166700	     -6.08198342	      2.09321280	      0.05444533	      1.10257081	      1.02390472	     -0.30072468	    -10.83521605	      1.62204199	      4.42497925	    -22.49055100	    -18.07175971	     44.04252563	      3.71629198	     -3.38842042	    -64.91938571	     -7.70224071	     -2.24211558	     -0.24893451	     12.75944319	    -24.97855998	    -10.66690177	    -11.47973776	    105.41131270	     80.00366251	    -53.45348180	    -18.97318277	     -8.59584919	     99.59187364	     80.94545286	      0.00000000	      0.00000000	      0.00000000	      0.00000000	      0.00000000	      0.00000000	      0.00000000	      0.00000000	      1.10779364	      1.04162151	     -0.41302732	      1.10430910	      1.02189013	     -0.18095836	      0.94352154	      1.08103347	     -0.35119176	      0.94359046	      1.07821723	     -0.25224764	      1.00391482	      0.87637702	     -0.12600813	      1.01532439	      0.72099355	     -0.16059918	      0.92230686	      0.65617092	     -0.17035030	      1.10658954	      0.89596105	     -0.47855010	      1.22094747	      0.85040461	     -0.45702050	      1.22086564	      0.70718665	     -0.45167622	      0.86184655	      0.42113576	     -0.23156309	      0.78298591	      0.40559495	     -0.17387411	      0.74338801	      0.28469611	     -0.23454211	      1.29297234	      0.49152650	     -0.39329467	      1.20789338	      0.41914426	     -0.43341689	      1.19242004	      0.32077859	     -0.36743228	      0.56977277	      0.25605145	     -0.25801819	      0.69944723	      0.09560897	     -0.29592283	      0.65905979	      0.06866358	     -0.19638374	      1.03373099	      0.25663078	     -0.34142236	      1.21548796	      0.15509662	     -0.31938877	      1.18349135	      0.12334914	     -0.41892617	      1.04572089	      1.52312723	     -0.46298863	      1.11011841	      1.50615040	     -0.11382571	      1.15192948	      1.46373663	     -0.28393577	      1.04155038	      1.54706641	     -0.29269746	      1.09021041	      1.42358992	     -0.06496411	      1.09457492	      1.33330404	     -0.07715452	      1.00833258	      1.33705797	     -0.04735827	      0.99019606	      1.22230828	     -0.01987175	      0.96323276	      1.21607038	     -0.08707702	      0.98093418	      1.49181785	     -0.50419543	      0.92032025	      1.46235394	     -0.45690688	      0.91912647	      1.40924789	     -0.52781597	      0.80041645	      1.36264235	     -0.53440780	      0.79632835	      1.36129832	     -0.46041951	      1.08758480	      1.21698031	     -0.03561210	      1.23796167	      1.17354913	     -0.12160871	      1.21850919	      1.10900189	     -0.11390092	      0.85497137	      1.30355079	     -0.55592216	      0.98365973	      1.15646403	     -0.52534025	      0.92721773	      1.12013992	     -0.53277680
      4.05000000	     -6.59057579	      2.12934426	      0.34366580	      1.10322510	      1.02796759	     -0.30052677	    -11.04310186	      1.67646424	      5.06022359	    -22.80717593	    -20.05094585	     43.70679030	      3.96389651	     -3.18650068	    -59.30841684	     -8.95643074	     -1.58297685	     -0.55532253	     12.65143320	    -25.15003006	    -10.59786135	    -11.16379017	    105.64549252	     80.31589598	    -54.27350502	    -18.94770581	     -9.27950416	    100.59232470	     80.74360603	      0.00000000	      0.00000000	      0.00000000	      0.00000000	      0.00000000	      0.00000000	      0.00000000	      0.00000000	      1.10772185	      1.04601273	     -0.41235860	      1.10571845	      1.02590657	     -0.18051642	      0.94460063	      1.08653661	     -0.34997029	      0.94503495	      1.08333152	     -0.25093744	      1.00381817	      0.88107232	     -0.12499721	      1.01251093	      0.72555112	     -0.16090033	      0.91888859	      0.66231470	     -0.17179666	      1.10516025	      0.90035198	     -0.47751905	      1.21837568	      0.85214347	     -0.45885743	      1.21611238	      0.70815788	     -0.44864334	      0.85529227	      0.42791321	     -0.23262919	      0.77739491	      0.41310659	     -0.17311900	      0.73469924	      0.29304549	     -0.23358315	      1.29929024	      0.49234281	     -0.39435125	      1.22031728	      0.41337257	     -0.43379801	      1.21298978	      0.31400447	     -0.36760793	      0.56258568	      0.27112742	     -0.25232518	      0.68192799	      0.10326210	     -0.29449879	      0.64324410	      0.07779773	     -0.19505480	      1.05997264	      0.23838591	     -0.34138026	      1.24828465	      0.15015651	     -0.31621238	      1.21833472	      0.11352445	     -0.41602653	      1.04563103	      1.52629593	     -0.46406510	      1.11106852	      1.51126588	     -0.11582324	      1.15194474	      1.46759592	     -0.28526923	      1.04154486	      1.55088321	     -0.29389810	      1.09148726	      1.42990465	     -0.06608681	      1.09599649	      1.33954421	     -0.07694384	      1.00957291	      1.34360897	     -0.04799046	      0.99129821	      1.22856928	     -0.01933813	      0.96480333	      1.22143398	     -0.08721947	      0.98052785	      1.49700627	     -0.50463969	      0.92051934	      1.46773193	     -0.45675294	      0.91746721	      1.41504917	     -0.52794558	      0.79829561	      1.36901846	     -0.53334636	      0.79487574	      1.36799696	     -0.45946956	      1.08828679	      1.22340845	     -0.03634107	      1.23810804	      1.18016196	     -0.12378214	      1.21939937	      1.11549768	     -0.11593350	      0.85259220	      1.31035872	     -0.55542457	      0.98310147	      1.16435904	     -0.52602880	      0.92709878	      1.12733869	     -0.53287885
